{
    "asset" : {
        "generator" : "Khronos glTF Blender I/O v3.2.43",
        "version" : "2.0"
    },
    "scene" : 0,
    "scenes" : [
        {
            "name" : "Scene",
            "nodes" : [
                0
            ]
        }
    ],
    "nodes" : [
        {
            "mesh" : 0,
            "name" : "Shoe",
            "translation" : [
                -0.06112423539161682,
                -0.006108760833740234,
                -0.11454644799232483
            ]
        }
    ],
    "materials" : [
        {
            "doubleSided" : true,
            "name" : "Main ",
            "pbrMetallicRoughness" : {
                "baseColorFactor" : [
                    0.800000011920929,
                    0.800000011920929,
                    0.800000011920929,
                    1
                ]
            }
        },
        {
            "doubleSided" : true,
            "emissiveFactor" : [
                1,
                1,
                1
            ],
            "name" : "Label",
            "pbrMetallicRoughness" : {
                "baseColorFactor" : [
                    0,
                    0,
                    0,
                    1
                ]
            }
        },
        {
            "doubleSided" : true,
            "name" : "Glow",
            "pbrMetallicRoughness" : {
                "baseColorFactor" : [
                    0.800000011920929,
                    0.800000011920929,
                    0.800000011920929,
                    1
                ],
                "metallicFactor" : 0
            }
        },
        {
            "doubleSided" : true,
            "emissiveFactor" : [
                1,
                1,
                1
            ],
            "name" : "Soles",
            "pbrMetallicRoughness" : {
                "baseColorFactor" : [
                    0,
                    0,
                    0,
                    1
                ]
            }
        }
    ],
    "meshes" : [
        {
            "name" : "Shoe_Mesh",
            "primitives" : [
                {
                    "attributes" : {
                        "POSITION" : 0,
                        "NORMAL" : 1,
                        "TEXCOORD_0" : 2
                    },
                    "indices" : 3,
                    "material" : 0
                },
                {
                    "attributes" : {
                        "POSITION" : 4,
                        "NORMAL" : 5,
                        "TEXCOORD_0" : 6
                    },
                    "indices" : 7,
                    "material" : 1
                },
                {
                    "attributes" : {
                        "POSITION" : 8,
                        "NORMAL" : 9,
                        "TEXCOORD_0" : 10
                    },
                    "indices" : 11,
                    "material" : 2
                },
                {
                    "attributes" : {
                        "POSITION" : 12,
                        "NORMAL" : 13,
                        "TEXCOORD_0" : 14
                    },
                    "indices" : 15,
                    "material" : 3
                }
            ]
        }
    ],
    "accessors" : [
        {
            "bufferView" : 0,
            "componentType" : 5126,
            "count" : 151760,
            "max" : [
                0.8591515421867371,
                2.593808650970459,
                1.8881672620773315
            ],
            "min" : [
                -0.7614454627037048,
                -0.013697288930416107,
                -2.4157376289367676
            ],
            "type" : "VEC3"
        },
        {
            "bufferView" : 1,
            "componentType" : 5126,
            "count" : 151760,
            "type" : "VEC3"
        },
        {
            "bufferView" : 2,
            "componentType" : 5126,
            "count" : 151760,
            "type" : "VEC2"
        },
        {
            "bufferView" : 3,
            "componentType" : 5125,
            "count" : 789174,
            "type" : "SCALAR"
        },
        {
            "bufferView" : 4,
            "componentType" : 5126,
            "count" : 136,
            "max" : [
                0.2711036503314972,
                2.600783586502075,
                0.48760145902633667
            ],
            "min" : [
                -0.1534338742494583,
                2.3732872009277344,
                0.29346853494644165
            ],
            "type" : "VEC3"
        },
        {
            "bufferView" : 5,
            "componentType" : 5126,
            "count" : 136,
            "type" : "VEC3"
        },
        {
            "bufferView" : 6,
            "componentType" : 5126,
            "count" : 136,
            "type" : "VEC2"
        },
        {
            "bufferView" : 7,
            "componentType" : 5123,
            "count" : 474,
            "type" : "SCALAR"
        },
        {
            "bufferView" : 8,
            "componentType" : 5126,
            "count" : 3863,
            "max" : [
                0.8266952633857727,
                1.4362872838974,
                1.7985919713974
            ],
            "min" : [
                -0.5689611434936523,
                0.7263181209564209,
                -0.03532784432172775
            ],
            "type" : "VEC3"
        },
        {
            "bufferView" : 9,
            "componentType" : 5126,
            "count" : 3863,
            "type" : "VEC3"
        },
        {
            "bufferView" : 10,
            "componentType" : 5126,
            "count" : 3863,
            "type" : "VEC2"
        },
        {
            "bufferView" : 11,
            "componentType" : 5123,
            "count" : 19680,
            "type" : "SCALAR"
        },
        {
            "bufferView" : 12,
            "componentType" : 5126,
            "count" : 291,
            "max" : [
                0.8591515421867371,
                0.4448625147342682,
                1.8860851526260376
            ],
            "min" : [
                -0.7614454627037048,
                0.07031524181365967,
                -2.4132513999938965
            ],
            "type" : "VEC3"
        },
        {
            "bufferView" : 13,
            "componentType" : 5126,
            "count" : 291,
            "type" : "VEC3"
        },
        {
            "bufferView" : 14,
            "componentType" : 5126,
            "count" : 291,
            "type" : "VEC2"
        },
        {
            "bufferView" : 15,
            "componentType" : 5123,
            "count" : 855,
            "type" : "SCALAR"
        }
    ],
    "bufferViews" : [
        {
            "buffer" : 0,
            "byteLength" : 1821120,
            "byteOffset" : 0
        },
        {
            "buffer" : 0,
            "byteLength" : 1821120,
            "byteOffset" : 1821120
        },
        {
            "buffer" : 0,
            "byteLength" : 1214080,
            "byteOffset" : 3642240
        },
        {
            "buffer" : 0,
            "byteLength" : 3156696,
            "byteOffset" : 4856320
        },
        {
            "buffer" : 0,
            "byteLength" : 1632,
            "byteOffset" : 8013016
        },
        {
            "buffer" : 0,
            "byteLength" : 1632,
            "byteOffset" : 8014648
        },
        {
            "buffer" : 0,
            "byteLength" : 1088,
            "byteOffset" : 8016280
        },
        {
            "buffer" : 0,
            "byteLength" : 948,
            "byteOffset" : 8017368
        },
        {
            "buffer" : 0,
            "byteLength" : 46356,
            "byteOffset" : 8018316
        },
        {
            "buffer" : 0,
            "byteLength" : 46356,
            "byteOffset" : 8064672
        },
        {
            "buffer" : 0,
            "byteLength" : 30904,
            "byteOffset" : 8111028
        },
        {
            "buffer" : 0,
            "byteLength" : 39360,
            "byteOffset" : 8141932
        },
        {
            "buffer" : 0,
            "byteLength" : 3492,
            "byteOffset" : 8181292
        },
        {
            "buffer" : 0,
            "byteLength" : 3492,
            "byteOffset" : 8184784
        },
        {
            "buffer" : 0,
            "byteLength" : 2328,
            "byteOffset" : 8188276
        },
        {
            "buffer" : 0,
            "byteLength" : 1710,
            "byteOffset" : 8190604
        }
    ],
    "buffers" : [
        {
            "byteLength" : 8192316,
            "uri" : "Shoe.bin"
        }
    ]
}
